<svg xmlns="http://www.w3.org/2000/svg" width="640" height="360" viewBox="0 0 640 360" role="img" aria-labelledby="title desc">
  <title id="title">Synthetic civic assembly test frame</title>
  <desc id="desc">A fictional geometric crowd holding a sign. This is not evidence.</desc>
  <rect width="640" height="360" fill="#f3efe4"/>
  <rect x="48" y="36" width="544" height="100" rx="8" fill="#181818"/>
  <text x="320" y="78" text-anchor="middle" font-family="sans-serif" font-size="24" font-weight="700" fill="#d7ff42">SYNTHETIC CIVIC ASSEMBLY</text>
  <text x="320" y="112" text-anchor="middle" font-family="sans-serif" font-size="18" fill="#ffffff">DEMO / NOT EVIDENCE</text>
  <g fill="#3568d4" stroke="#181818" stroke-width="4">
    <circle cx="139" cy="203" r="27"/><path d="M86 322v-67c0-30 24-54 53-54s53 24 53 54v67z"/>
    <circle cx="325" cy="187" r="27"/><path d="M272 322v-67c0-30 24-54 53-54s53 24 53 54v67z"/>
    <circle cx="501" cy="213" r="27"/><path d="M448 322v-57c0-30 24-54 53-54s53 24 53 54v57z"/>
  </g>
  <rect x="0" y="332" width="640" height="28" fill="#ef4b3e"/>
</svg>
